<?xml version="1.0" encoding="UTF-8"?>
<svg version="1.1" xmlns="http://www.w3.org/2000/svg" width="1080" height="1080">
<path d="M0 0 C54.69949725 13.08651596 108.42987576 39.56115867 152 75 C152.83917969 75.66386719 153.67835938 76.32773437 154.54296875 77.01171875 C165.47637791 85.7487562 176.09883223 95.17261141 185 106 C186.20462891 107.37285156 186.20462891 107.37285156 187.43359375 108.7734375 C221.71597503 147.94445041 241.76962178 198.92811276 238.65820312 251.34960938 C234.88715803 302.62804733 211.9961186 350.094472 179 389 C178.14304328 390.02581845 177.28636363 391.05186842 176.42993164 392.078125 C169.55218165 400.26571929 162.32279194 407.99166145 154.73608398 415.5246582 C152.92778392 417.32215805 151.13054023 419.13022316 149.33398438 420.93945312 C142.52882249 427.75234187 135.56814999 434.03421393 128 440 C126.18471042 441.538381 124.37158025 443.07932183 122.5625 444.625 C99.23388258 464.01579453 73.63973861 480.25438159 47.89648438 496.19873047 C19.74774608 513.70390504 -8.39128671 531.87982487 -34 553 C-34.95777344 553.77214844 -35.91554688 554.54429687 -36.90234375 555.33984375 C-49.92026547 565.96505062 -62.96316745 577.72180457 -72 592 C-72.804375 593.22203125 -72.804375 593.22203125 -73.625 594.46875 C-87.36304089 616.1748546 -88.24982267 638.29142455 -85 663 C-84.78595187 664.85351563 -84.57624452 666.70755055 -84.375 668.5625 C-84.25125 669.696875 -84.1275 670.83125 -84 672 C-93.71224534 670.04110767 -102.61443063 666.6090532 -111.6940918 662.74951172 C-114.08040679 661.74244301 -116.47968615 660.77179549 -118.88085938 659.80078125 C-120.41237749 659.15582414 -121.94301187 658.50876356 -123.47265625 657.859375 C-124.5413369 657.43552521 -124.5413369 657.43552521 -125.63160706 657.00311279 C-129.36772861 655.36530636 -130.89033295 654.19820988 -132.88598633 650.59130859 C-133.8067606 647.62295673 -134.68518684 644.71361624 -135.3515625 641.6796875 C-135.56296875 640.73222656 -135.774375 639.78476562 -135.9921875 638.80859375 C-136.20101562 637.84050781 -136.40984375 636.87242187 -136.625 635.875 C-136.8415625 634.89917969 -137.058125 633.92335938 -137.28125 632.91796875 C-137.86413353 630.28060068 -138.43986184 627.64228894 -139 625 C-139.25826317 623.83710953 -139.25826317 623.83710953 -139.52174377 622.65072632 C-139.98525997 620.08169632 -140.14592592 617.71938495 -140.17700195 615.11230469 C-140.19625481 613.69362091 -140.19625481 613.69362091 -140.21589661 612.24627686 C-140.22328354 611.23172424 -140.23067047 610.21717163 -140.23828125 609.171875 C-140.246353 608.10946594 -140.25442474 607.04705688 -140.26274109 605.95245361 C-140.27656146 603.69976419 -140.28729275 601.447054 -140.29516602 599.19433594 C-140.3066142 596.91953272 -140.32695026 594.64475481 -140.35668945 592.37011719 C-140.53578492 578.65480635 -140.0854804 566.14699655 -136 553 C-135.71745361 552.06752441 -135.43490723 551.13504883 -135.14379883 550.17431641 C-134.40857203 547.89838559 -133.60774108 545.66978013 -132.75 543.4375 C-132.45335449 542.65213867 -132.15670898 541.86677734 -131.85107422 541.05761719 C-121.02248491 513.08046981 -103.22650113 489.89674752 -83.4375 467.68359375 C-81.91935242 465.95793312 -81.91935242 465.95793312 -80.4375 463.78515625 C-79.963125 463.19605469 -79.48875 462.60695313 -79 462 C-78.34 462 -77.68 462 -77 462 C-76.79632813 461.47019531 -76.59265625 460.94039062 -76.3828125 460.39453125 C-74.39924592 456.95971115 -71.69851053 454.4473642 -68.875 451.6875 C-68.28895996 451.10790527 -67.70291992 450.52831055 -67.09912109 449.93115234 C-63.43137682 446.32812702 -59.67723487 442.86811162 -55.7578125 439.5390625 C-53.92072976 437.9305945 -52.21092213 436.24161132 -50.5 434.5 C-46.836967 430.78790853 -42.95192652 427.39977352 -39 424 C-37.84708877 422.99544258 -36.69479865 421.99017209 -35.54296875 420.984375 C-28.13290523 414.52167766 -20.64858573 408.18005727 -13 402 C-11.7521362 400.98234439 -10.5047748 399.96407255 -9.2578125 398.9453125 C-2.84521864 393.71167033 3.59093459 388.51883256 10.125 383.4375 C27.26632852 370.06186682 43.84022318 355.5288164 58 339 C58.90549377 337.96938717 59.81180958 336.93949625 60.71875 335.91015625 C70.85062728 324.34438184 80.07262949 312.19367534 88 299 C88.61101562 297.99324219 89.22203125 296.98648437 89.8515625 295.94921875 C116.17598095 251.32356117 127.50502226 199.05905662 114.5625 148.15625 C106.43458407 118.00743725 92.07254746 89.95148253 72 66 C71.26136719 65.07703125 70.52273438 64.1540625 69.76171875 63.203125 C58.02716594 48.82236666 44.71939808 35.32077283 30 24 C28.33260716 22.5841881 26.66597825 21.16747617 25 19.75 C19.0409013 14.834831 12.6454543 10.58583773 6.19726562 6.34082031 C4.99553711 5.5398291 4.99553711 5.5398291 3.76953125 4.72265625 C3.04354736 4.24578369 2.31756348 3.76891113 1.56958008 3.27758789 C1.05161865 2.85598389 0.53365723 2.43437988 0 2 C0 1.34 0 0.68 0 0 Z " fill="#E7BA05" transform="translate(338,189)"/>
<path d="M0 0 C5.32400603 0.61482756 10.1491238 1.82784364 15.23828125 3.484375 C16.02388931 3.73600906 16.80949738 3.98764313 17.61891174 4.24690247 C20.1861032 5.07330009 22.74964388 5.91025932 25.3125 6.75 C26.19593079 7.0383371 27.07936157 7.32667419 27.98956299 7.62374878 C53.93935042 16.11765411 79.27648924 25.659565 103.89550781 37.51171875 C107.08437816 39.04045055 110.28645041 40.53824584 113.4921875 42.03125 C126.3932417 48.07390972 138.85348002 54.55494047 151 62 C151.78568359 62.47937012 152.57136719 62.95874023 153.38085938 63.45263672 C181.53258478 80.70893889 209.34398519 100.78996251 232 125 C232 125.66 232 126.32 232 127 C232.66 127 233.32 127 234 127 C235.33984375 128.29296875 235.33984375 128.29296875 236.9375 130.1875 C237.56269531 130.92613281 238.18789063 131.66476562 238.83203125 132.42578125 C239.54746094 133.27527344 240.26289062 134.12476563 241 135 C241.80824219 135.92167969 242.61648438 136.84335937 243.44921875 137.79296875 C290.83203114 192.05435804 317.70810429 267.38333243 313.86376953 339.55761719 C312.07973327 365.40340034 306.20737432 390.48257958 295.01464844 413.87695312 C294.03559394 415.92552336 293.08331423 417.98494003 292.1328125 420.046875 C282.07998837 441.41471411 267.2939007 460.06546742 251 477 C250.44940918 477.57782227 249.89881836 478.15564453 249.33154297 478.75097656 C241.57871956 486.85569804 233.51427355 494.06827901 224.55615234 500.81103516 C222.34251052 502.50234919 220.20792763 504.28587315 218.0625 506.0625 C205.64572203 515.98384771 191.73694532 524.0699249 178 532 C177.27989746 532.41717285 176.55979492 532.8343457 175.81787109 533.26416016 C142.91799863 552.06518669 106.0165608 564.75657982 69.5 574.375 C68.76526459 574.56865143 68.03052917 574.76230286 67.27352905 574.96182251 C61.86478596 576.37489973 56.43852977 577.70662571 51 579 C49.53876205 579.348349 49.53876205 579.348349 48.04800415 579.70373535 C28.76904133 584.25360124 9.3757911 587.55342894 -10.1887207 590.60449219 C-46.39159373 596.28068587 -87.46668313 604.90417961 -111 636 C-117.68999222 645.81288597 -122.12613639 655.3653854 -120.58984375 667.4140625 C-119.68177244 671.39514336 -118.05097237 674.47489124 -116 678 C-115.67 678.66 -115.34 679.32 -115 680 C-128.42059185 679.66825503 -144.42477977 677.03921769 -154 667 C-154.60585938 666.42765625 -155.21171875 665.8553125 -155.8359375 665.265625 C-165.04450513 655.85599694 -169.77692866 643.10230554 -170.3125 630.125 C-169.75938996 610.42813674 -157.62597767 595.01476822 -144.109375 581.796875 C-118.62259921 558.28837417 -84.73988376 548.51731224 -52.57107544 537.89059448 C60.4683441 501.28854648 60.4683441 501.28854648 159 437 C159.81162598 436.2889209 159.81162598 436.2889209 160.63964844 435.56347656 C195.39318739 405.04966553 211.79859313 364.15904739 218.8125 319.25 C218.91782043 318.57676697 219.02314087 317.90353394 219.13165283 317.2098999 C225.72686791 274.51923331 222.81771397 230.09962422 206 190 C205.70931641 189.30036133 205.41863281 188.60072266 205.11914062 187.87988281 C197.44164422 169.73692497 186.66871636 153.04048518 174 138 C173.5167627 137.41669922 173.03352539 136.83339844 172.53564453 136.23242188 C165.7521423 128.04718717 158.62393337 120.40713905 151 113 C148.66957062 110.68016348 146.34731393 108.3535531 144.04296875 106.0078125 C139.54040613 101.43889632 134.88115964 97.15894724 130 93 C128.61554688 91.79923828 128.61554688 91.79923828 127.203125 90.57421875 C118.4228258 83.00070379 109.28015762 75.94764756 100 69 C99.24412598 68.4337793 98.48825195 67.86755859 97.70947266 67.28417969 C88.75608051 60.59510249 79.71440398 54.03993469 70.5625 47.625 C69.78285889 47.07851807 69.00321777 46.53203613 68.19995117 45.96899414 C56.44705362 37.77892932 44.42980832 29.97298679 32.46362305 22.09985352 C29.93806981 20.43787497 27.41336003 18.7746204 24.88867188 17.11132812 C23.24751327 16.03107157 21.60623939 14.95099011 19.96484375 13.87109375 C19.17798187 13.35316254 18.39112 12.83523132 17.58041382 12.30160522 C12.34274862 8.86138421 7.06985828 5.48848119 1.74047852 2.19165039 C1.16612061 1.79840576 0.5917627 1.40516113 0 1 C0 0.67 0 0.34 0 0 Z " fill="#E7BB05" transform="translate(444,201)"/>
<path d="M0 0 C5.94476659 0.56008545 10.84255281 2.95370718 16.1875 5.4375 C17.16001709 5.88561035 18.13253418 6.3337207 19.13452148 6.79541016 C28.60409013 11.20441541 37.84692359 15.97083714 47 21 C47.81758789 21.44537109 48.63517578 21.89074219 49.47753906 22.34960938 C75.13320454 36.39041742 99.70395405 53.04673823 122 72 C122.56058105 72.47179687 123.12116211 72.94359375 123.69873047 73.4296875 C136.45537887 84.16639131 136.45537887 84.16639131 141.66796875 89.6953125 C143.17073632 91.24811216 143.17073632 91.24811216 146 93 C146 93.66 146 94.32 146 95 C146.598125 95.268125 147.19625 95.53625 147.8125 95.8125 C149.99847854 96.99917406 151.41332594 98.09599113 153 100 C153 100.66 153 101.32 153 102 C153.66 102 154.32 102 155 102 C156.41015625 103.3984375 156.41015625 103.3984375 158.0625 105.375 C160.77923786 108.57546345 163.54335219 111.71306063 166.375 114.8125 C221.77010133 176.37299204 251.98880272 254.14374676 249 337 C246.43497068 380.89669743 228.82658907 425.08094345 201 459 C200.57783203 459.51836426 200.15566406 460.03672852 199.72070312 460.57080078 C185.6545238 477.78336232 170.13836542 494.80729114 153 509 C152.113125 509.7528125 151.22625 510.505625 150.3125 511.28125 C127.93396409 530.16313967 103.60463758 546.62733966 77 559 C76.38833984 559.28649414 75.77667969 559.57298828 75.14648438 559.86816406 C18.05525327 586.36404164 -44.67058207 594.25606238 -106.87890625 598 C-107.57133108 598.04191467 -108.26375591 598.08382935 -108.97716331 598.12701416 C-115.24469619 598.50568355 -121.5122963 598.88242972 -127.78231812 599.21777344 C-184.77517455 600.25656835 -184.77517455 600.25656835 -233.5 624.6875 C-235.07295807 628.16111573 -235.16006177 629.96317905 -235.09375 633.70703125 C-235.08021484 634.69807861 -235.06667969 635.68912598 -235.05273438 636.71020508 C-235.03533203 637.4658374 -235.01792969 638.22146973 -235 639 C-240.30283896 638.47574466 -245.60466169 637.94243567 -250.90576172 637.40087891 C-252.7075966 637.21807468 -254.50968032 637.03770554 -256.31201172 636.85986328 C-258.90922893 636.60315324 -261.50541214 636.3375711 -264.1015625 636.0703125 C-264.9017984 635.99313995 -265.7020343 635.91596741 -266.52651978 635.8364563 C-277.12813022 634.72193846 -277.12813022 634.72193846 -280.609375 631.51953125 C-284.81245825 625.22930049 -287.14781796 618.68155095 -286 611 C-283.54596236 602.89235667 -277.70688225 598.01431007 -270.51953125 593.99609375 C-227.94159578 571.32304691 -175.23491643 569.48495524 -128.23980713 565.06993103 C-37.90664881 556.55442715 57.31463887 541.1893881 126.5234375 477.265625 C128.5748081 475.38897682 130.65622876 473.56868113 132.76171875 471.75390625 C137.16881408 467.90825715 141.3144216 463.83363382 145.4375 459.6875 C146.15615234 458.97271484 146.87480469 458.25792969 147.61523438 457.52148438 C148.29779297 456.83763672 148.98035156 456.15378906 149.68359375 455.44921875 C150.29775146 454.83393311 150.91190918 454.21864746 151.54467773 453.5847168 C153.09170925 452.04624733 153.09170925 452.04624733 154 450 C154.66 450 155.32 450 156 450 C156.25007813 449.42636719 156.50015625 448.85273437 156.7578125 448.26171875 C158.17346364 445.68416526 159.83122279 443.92739766 161.875 441.8125 C188.8714217 412.25943483 204.49517819 373.04469632 211 334 C211.18618896 332.89470947 211.37237793 331.78941895 211.56420898 330.65063477 C213.16404532 320.10480388 213.35717253 309.71022796 213.3125 299.0625 C213.31067719 298.16025696 213.30885437 297.25801392 213.30697632 296.32843018 C213.25844479 282.0336029 212.61289085 268.08543621 210 254 C209.83371094 253.0723584 209.66742187 252.1447168 209.49609375 251.18896484 C205.55305849 229.76879089 198.92921397 208.86132936 190 189 C189.66919434 188.25621094 189.33838867 187.51242187 188.99755859 186.74609375 C181.48716038 169.98324874 172.53090867 154.05878964 162 139 C161.25492188 137.91847656 160.50984375 136.83695313 159.7421875 135.72265625 C150.64597171 122.64905005 140.57301308 110.43273658 129.65625 98.84375 C127.41310423 96.44226452 125.25370614 94.00216336 123.125 91.5 C120.3260041 88.25941494 117.33478846 85.68232985 114 83 C111.64542494 80.70906211 109.35275908 78.36635426 107.07421875 76 C101.39077723 70.18532449 95.3596544 65.0569771 89 60 C87.82988289 59.05182467 86.66065191 58.10255502 85.4921875 57.15234375 C72.16987964 46.35061513 58.40599057 36.30842914 44 27 C43.3807666 26.59958496 42.7615332 26.19916992 42.12353516 25.78662109 C31.40496637 18.89353477 20.38309292 12.55903275 9.28857422 6.29394531 C6.18626372 4.53991868 3.09272282 2.77086707 0 1 C0 0.67 0 0.34 0 0 Z " fill="#E7BA05" transform="translate(630,252)"/>
</svg>
